# xmcd
#
# Track frame offsets:
#	150
#	42300
#	84900
#	112200
#	156600
#
# Disc length: 3416 seconds
#
# Revision: 1
# Processed by: cddbd v1.5.1PL0 Copyright (c) Steve Scherf et al.
# Submitted via: CDex 1.50Beta5
#
DISCID=3e0d5605
DTITLE=シノーポリ - シュトラウス&ウェーバー 管弦楽曲集
DYEAR=1900
DGENRE=
TTITLE0=シノーポリ ドレスデン国立管弦楽団/トラック1 魔弾の射手序曲
TTITLE1=トラック2 オべロン序曲
TTITLE2=Strauss: Feuersnot
TTITLE3=Strauss: Salomes Tanz
TTITLE4=トラック5 交響的幻想曲 (影のない女)
EXTD=
EXTT0=
EXTT1=
EXTT2=
EXTT3=
EXTT4=
PLAYORDER=
